<svg width="95" height="50" viewBox="0 0 95 50" fill="none" xmlns="http://www.w3.org/2000/svg">
<path d="M14.1258 33.4886V50H0V0.381032H5.61627C6.9778 0.381032 9.00589 0.324583 11.7006 0.211685C14.3952 0.0705616 16.6219 0 18.3805 0C24.5074 0 29.0741 1.34067 32.0808 4.02202C35.1159 6.70336 36.6334 10.81 36.6334 16.3421C36.6334 19.6161 35.9101 22.5233 34.4635 25.0635C33.0452 27.6037 31.159 29.6218 28.8047 31.1177C30.0811 31.4282 31.1732 32.1479 32.0808 33.2769C33.0169 34.4059 33.7402 35.7465 34.2508 37.2989C34.7613 38.823 35.201 40.3754 35.5697 41.956C35.9668 43.5083 36.4065 45.0466 36.8887 46.5707C37.3993 48.0948 37.9524 49.2379 38.5481 50H22.848C22.536 49.6049 22.2949 48.5041 22.1247 46.6977C21.9545 44.8631 21.7134 42.6757 21.4014 40.1355C21.1178 37.567 20.7065 35.422 20.1675 33.7003C20.1108 33.7003 20.0399 33.7003 19.9548 33.7003C19.4159 33.7003 18.8344 33.7003 18.2103 33.7003C17.6147 33.672 17.0899 33.6438 16.6361 33.6156C16.1822 33.5874 15.7 33.5591 15.1895 33.5309C14.7073 33.5027 14.3527 33.4886 14.1258 33.4886ZM14.1258 25.6139H15.4873C16.1964 25.6139 16.7921 25.5857 17.2743 25.5292C17.7565 25.4728 18.2813 25.374 18.8486 25.2329C19.4442 25.0635 19.9264 24.8095 20.2952 24.4708C20.6923 24.1321 21.061 23.6946 21.4014 23.1583C21.7418 22.6221 21.9971 21.9306 22.1673 21.0838C22.3375 20.2371 22.4226 19.2492 22.4226 18.1202V14.7756C22.4226 12.3201 21.7702 10.6125 20.4654 9.65284C19.1889 8.66497 17.3452 8.17104 14.9342 8.17104H14.1258V25.6139Z" fill="white"/>
<path d="M52.0695 50H39.2627L43.2197 0.381032H63.1744L66.9186 17.0195L68.6205 25.4445L70.2373 17.0618L73.556 0.381032H91.3409L95 50H81.7677L79.5978 20.8298L79.0872 10.0762L72.5775 45.0466H61.4725L53.6438 10.0762L53.3885 20.8298L52.0695 50Z" fill="white"/>
</svg>
