<svg width="281" height="43" viewBox="0 0 281 43" fill="none" xmlns="http://www.w3.org/2000/svg">
<path d="M10.672 29.52V42H0.0479736V4.49601H4.27197C5.29597 4.49601 6.82131 4.45334 8.84797 4.36801C10.8746 4.26134 12.5493 4.20801 13.872 4.20801C18.48 4.20801 21.9146 5.22134 24.176 7.24801C26.4586 9.27468 27.6 12.3787 27.6 16.56C27.6 19.0347 27.056 21.232 25.968 23.152C24.9013 25.072 23.4826 26.5973 21.712 27.728C22.672 27.9627 23.4933 28.5067 24.176 29.36C24.88 30.2133 25.424 31.2267 25.808 32.4C26.192 33.552 26.5226 34.7253 26.8 35.92C27.0986 37.0933 27.4293 38.256 27.792 39.408C28.176 40.56 28.592 41.424 29.04 42H17.232C16.9973 41.7013 16.816 40.8693 16.688 39.504C16.56 38.1173 16.3786 36.464 16.144 34.544C15.9306 32.6027 15.6213 30.9813 15.216 29.68C15.1733 29.68 15.12 29.68 15.056 29.68C14.6506 29.68 14.2133 29.68 13.744 29.68C13.296 29.6587 12.9013 29.6373 12.56 29.616C12.2186 29.5947 11.856 29.5733 11.472 29.552C11.1093 29.5307 10.8426 29.52 10.672 29.52ZM10.672 23.568H11.696C12.2293 23.568 12.6773 23.5467 13.04 23.504C13.4026 23.4613 13.7973 23.3867 14.224 23.28C14.672 23.152 15.0346 22.96 15.312 22.704C15.6106 22.448 15.888 22.1173 16.144 21.712C16.4 21.3067 16.592 20.784 16.72 20.144C16.848 19.504 16.912 18.7573 16.912 17.904V15.376C16.912 13.52 16.4213 12.2293 15.44 11.504C14.48 10.7573 13.0933 10.384 11.28 10.384H10.672V23.568Z" fill="white"/>
<path d="M45.2575 39.152L44.9375 39.504C44.7241 39.76 44.3935 40.0587 43.9455 40.4C43.5188 40.7413 43.0175 41.0827 42.4415 41.424C41.8868 41.7653 41.2041 42.0533 40.3935 42.288C39.5828 42.544 38.7508 42.672 37.8975 42.672C32.1375 42.672 29.2575 39.824 29.2575 34.128C29.2575 33.0187 29.4601 32.0053 29.8655 31.088C30.2708 30.1493 30.7935 29.36 31.4335 28.72C32.0735 28.08 32.8415 27.5147 33.7375 27.024C34.6335 26.512 35.5295 26.1173 36.4255 25.84C37.3428 25.5413 38.3028 25.296 39.3055 25.104C40.3081 24.912 41.2041 24.784 41.9935 24.72C42.7828 24.656 43.5401 24.624 44.2655 24.624V24.048C44.2655 22.7467 43.9135 21.8293 43.2095 21.296C42.5268 20.7627 41.4175 20.496 39.8815 20.496C38.5588 20.496 37.1828 20.656 35.7535 20.976C34.3241 21.2747 33.2041 21.6373 32.3935 22.064L30.3455 17.712C31.7961 16.7733 33.6841 15.952 36.0095 15.248C38.3348 14.5227 40.7028 14.16 43.1135 14.16C45.2468 14.16 47.0068 14.3733 48.3935 14.8C49.7801 15.2053 50.9001 15.9093 51.7535 16.912C52.6281 17.8933 53.2468 19.152 53.6095 20.688C53.9721 22.2027 54.1535 24.1333 54.1535 26.48V39.504L55.0495 42H46.2815L45.2575 39.152ZM42.7295 37.04C43.0068 37.04 43.2628 36.9867 43.4975 36.88C43.7535 36.752 43.9455 36.6347 44.0735 36.528C44.2015 36.4 44.2655 36.336 44.2655 36.336V28.656C42.9641 28.656 41.9295 29.0187 41.1615 29.744C40.3935 30.448 40.0095 31.5467 40.0095 33.04C40.0095 35.7067 40.9161 37.04 42.7295 37.04Z" fill="white"/>
<path d="M65.734 42.672C62.854 42.672 60.838 41.808 59.686 40.08C58.5553 38.352 57.99 35.4293 57.99 31.312V20.432H55.782V15.984L59.558 14.8L62.822 7.34401H68.454V14.8H73.702V20.432H68.358V32.336C68.358 34.0427 68.6033 35.1733 69.094 35.728C69.5846 36.2827 70.342 36.56 71.366 36.56C71.814 36.56 72.2193 36.5067 72.582 36.4C72.9446 36.2933 73.2433 36.144 73.478 35.952V40.304C73.158 40.624 72.742 40.944 72.23 41.264C71.718 41.5627 70.8646 41.872 69.67 42.192C68.4966 42.512 67.1846 42.672 65.734 42.672Z" fill="white"/>
<path d="M90.8952 25.456C90.8952 22.7467 90.7566 20.8267 90.4792 19.696C90.2019 18.5653 89.6899 18 88.9432 18C88.3032 18 87.7806 18.1173 87.3752 18.352C86.9699 18.5653 86.6712 18.9173 86.4792 19.408C86.2872 19.8773 86.1592 20.368 86.0952 20.88C86.0526 21.3707 86.0312 22 86.0312 22.768V25.456H90.8952ZM88.3352 42.672C85.9459 42.672 83.8659 42.3093 82.0952 41.584C80.3459 40.8587 78.9592 39.8453 77.9352 38.544C76.9326 37.2427 76.1966 35.7813 75.7272 34.16C75.2579 32.5173 75.0232 30.6933 75.0232 28.688C75.0232 23.9093 76.2392 20.2933 78.6712 17.84C81.1032 15.3867 84.5059 14.16 88.8792 14.16C93.0819 14.16 96.0899 15.152 97.9032 17.136C99.7166 19.0987 100.623 22.2667 100.623 26.64V30.192H85.9992V30.8C85.9992 32.0587 86.1272 33.0933 86.3832 33.904C86.6606 34.7147 87.0552 35.312 87.5672 35.696C88.0792 36.08 88.6019 36.336 89.1352 36.464C89.6686 36.592 90.3192 36.656 91.0872 36.656C91.8339 36.656 92.6339 36.56 93.4872 36.368C94.3619 36.176 95.2366 35.8773 96.1112 35.472C97.0072 35.0667 97.7539 34.5867 98.3512 34.032L100.239 37.264C99.4499 38.544 98.2872 39.6213 96.7512 40.496C95.2366 41.3493 93.7752 41.9253 92.3672 42.224C90.9592 42.5227 89.6152 42.672 88.3352 42.672Z" fill="white"/>
<path d="M124.709 42H115.077L118.053 4.49601H133.061L135.877 17.072L137.157 23.44L138.373 17.104L140.869 4.49601H154.245L156.997 42H147.045L145.413 19.952L145.029 11.824L140.133 38.256H131.781L125.893 11.824L125.701 19.952L124.709 42Z" fill="white"/>
<path d="M173.016 38.832C173.955 38.832 174.67 38.448 175.16 37.68C175.672 36.8907 175.928 35.8133 175.928 34.448V24.336C175.928 20.176 174.947 18.096 172.984 18.096C172.067 18.096 171.352 18.4693 170.84 19.216C170.328 19.9627 170.072 21.0187 170.072 22.384V32.784C170.072 36.816 171.054 38.832 173.016 38.832ZM172.76 42.672C167.875 42.672 164.302 41.5627 162.04 39.344C159.779 37.1253 158.648 33.584 158.648 28.72C158.648 23.8987 159.79 20.272 162.072 17.84C164.355 15.3867 168.067 14.16 173.208 14.16C178.222 14.16 181.838 15.3333 184.056 17.68C186.296 20.0053 187.416 23.536 187.416 28.272C187.416 33.1787 186.232 36.8053 183.864 39.152C181.518 41.4987 177.816 42.672 172.76 42.672Z" fill="white"/>
<path d="M197.11 42L187.702 14.8H199.19L201.238 24.624L202.71 33.104L204.342 24.624L206.71 14.8H215.35L207.19 42H197.11Z" fill="white"/>
<path d="M217.152 42V21.296L215.232 20.112V16.688L222.112 14.8H227.456V42H217.152ZM221.792 11.856L216.544 6.57601V5.45601L221.792 0.208008H223.008L228.48 5.45601V6.57601L223.008 11.856H221.792Z" fill="white"/>
<path d="M246.239 25.456C246.239 22.7467 246.1 20.8267 245.823 19.696C245.546 18.5653 245.034 18 244.287 18C243.647 18 243.124 18.1173 242.719 18.352C242.314 18.5653 242.015 18.9173 241.823 19.408C241.631 19.8773 241.503 20.368 241.439 20.88C241.396 21.3707 241.375 22 241.375 22.768V25.456H246.239ZM243.679 42.672C241.29 42.672 239.21 42.3093 237.439 41.584C235.69 40.8587 234.303 39.8453 233.279 38.544C232.276 37.2427 231.54 35.7813 231.071 34.16C230.602 32.5173 230.367 30.6933 230.367 28.688C230.367 23.9093 231.583 20.2933 234.015 17.84C236.447 15.3867 239.85 14.16 244.223 14.16C248.426 14.16 251.434 15.152 253.247 17.136C255.06 19.0987 255.967 22.2667 255.967 26.64V30.192H241.343V30.8C241.343 32.0587 241.471 33.0933 241.727 33.904C242.004 34.7147 242.399 35.312 242.911 35.696C243.423 36.08 243.946 36.336 244.479 36.464C245.012 36.592 245.663 36.656 246.431 36.656C247.178 36.656 247.978 36.56 248.831 36.368C249.706 36.176 250.58 35.8773 251.455 35.472C252.351 35.0667 253.098 34.5867 253.695 34.032L255.583 37.264C254.794 38.544 253.631 39.6213 252.095 40.496C250.58 41.3493 249.119 41.9253 247.711 42.224C246.303 42.5227 244.959 42.672 243.679 42.672Z" fill="white"/>
<path d="M267.849 42.672C265.844 42.672 263.817 42.3413 261.769 41.68C259.721 40.9973 258.409 40.336 257.833 39.696L258.665 34.544C259.391 35.248 260.596 35.856 262.281 36.368C263.988 36.88 265.727 37.136 267.497 37.136C268.777 37.136 269.652 36.976 270.121 36.656C270.612 36.336 270.857 35.888 270.857 35.312C270.857 34.7573 270.431 34.2667 269.577 33.84C268.724 33.392 267.337 32.88 265.417 32.304C260.447 30.8107 257.961 27.7173 257.961 23.024C257.961 21.104 258.516 19.4613 259.625 18.096C260.735 16.7093 262.153 15.7067 263.881 15.088C265.609 14.4693 267.54 14.16 269.673 14.16C273.321 14.16 276.009 14.832 277.737 16.176C278.121 16.5387 278.313 16.72 278.313 16.72L276.905 21.296C275.497 19.9093 273.556 19.216 271.081 19.216C269.055 19.216 268.041 19.8133 268.041 21.008C268.041 21.3493 268.116 21.6373 268.265 21.872C268.415 22.0853 268.66 22.2773 269.001 22.448C269.364 22.5973 269.716 22.7253 270.057 22.832C270.399 22.9173 270.879 23.0453 271.497 23.216C272.116 23.3653 272.649 23.504 273.097 23.632C275.593 24.464 277.407 25.6373 278.537 27.152C279.668 28.6667 280.233 30.5547 280.233 32.816C280.233 39.3867 276.105 42.672 267.849 42.672Z" fill="white"/>
</svg>
